<svg width="282" height="234" viewBox="0 0 282 234" fill="none" xmlns="http://www.w3.org/2000/svg">
<g filter="url(#filter0_d_60_358)">
<path d="M168.419 191.9C230.664 168.788 268.651 116.462 253.266 75.0262C237.881 33.5904 174.95 18.7357 112.705 41.8473C50.4595 64.9589 12.4721 117.285 27.8573 158.721C43.2424 200.157 106.174 215.011 168.419 191.9Z" fill="#F75C03"/>
<path d="M153.108 116.802C153.133 116.802 153.15 116.802 153.176 116.802C154.336 116.849 185.483 118.179 186.804 120.456C187.943 122.418 194.145 157.1 196.023 167.704C196.303 169.297 195.08 170.758 193.457 170.758H65.4345C64.4999 170.758 63.8541 169.819 64.1898 168.948C67.5543 160.206 81.998 122.775 82.5927 122.775C82.9071 122.775 98.3407 120.027 114.747 118.633C132.891 117.091 152.199 116.815 153.108 116.802Z" fill="#004E89"/>
<path d="M111.149 63.4412C110.643 63.7768 105.405 90.7058 108.269 95.2556C111.132 99.8011 136.94 95.2556 136.94 95.2556L131.944 62.7615L111.149 63.4412Z" fill="#EFF9F0"/>
<path d="M139.79 75.3275L155.997 120.086H118.286L120.886 92.2607L129.73 70.5908L138.486 75.7906" fill="#EFF9F0"/>
<path d="M127.797 75.6376C128.403 75.6376 128.893 74.8844 128.893 73.9554C128.893 73.0263 128.403 72.2731 127.797 72.2731C127.192 72.2731 126.701 73.0263 126.701 73.9554C126.701 74.8844 127.192 75.6376 127.797 75.6376Z" fill="black"/>
<path d="M119.883 75.6376C120.488 75.6376 120.979 74.8844 120.979 73.9554C120.979 73.0263 120.488 72.2731 119.883 72.2731C119.278 72.2731 118.787 73.0263 118.787 73.9554C118.787 74.8844 119.278 75.6376 119.883 75.6376Z" fill="black"/>
<path d="M120.699 82.9529C121.37 82.9529 121.858 82.7958 121.901 82.783C122.033 82.7405 122.105 82.5961 122.062 82.4644C122.02 82.3327 121.875 82.2605 121.744 82.303C121.667 82.3285 119.845 82.9062 118.464 81.5723C118.027 81.1475 117.818 80.7736 117.878 80.5145C117.946 80.2256 118.354 80.0939 118.358 80.0897L119.96 79.5969C121.638 79.0786 123.685 72.579 123.915 71.8398C123.957 71.7081 123.881 71.5636 123.749 71.5254C123.617 71.4829 123.473 71.5594 123.434 71.6911C122.602 74.3844 120.886 78.7855 119.815 79.1126L118.218 79.6054C118.192 79.6139 117.534 79.8136 117.394 80.3913C117.283 80.8459 117.525 81.3641 118.12 81.9334C118.97 82.7533 119.955 82.9487 120.707 82.9487L120.699 82.9529Z" fill="black"/>
<path d="M121.353 88.4586C124.085 88.4586 126.676 85.6548 126.914 85.2597L126.485 84.9963C126.455 85.0388 123.023 89.083 119.989 87.6514L119.773 88.1102C120.295 88.3566 120.826 88.4586 121.353 88.4586Z" fill="black"/>
<path d="M120.198 97.5369C120.457 97.5369 120.69 97.5369 120.899 97.5284C123.333 97.4434 128.872 96.6787 128.928 96.6702C129.068 96.6532 129.161 96.5215 129.144 96.3856C129.123 96.2454 128.996 96.152 128.86 96.169C128.804 96.1774 123.29 96.9379 120.882 97.0228C118.473 97.1035 111.769 96.6447 111.706 96.6405C111.565 96.6278 111.446 96.734 111.438 96.8741C111.429 97.0143 111.531 97.1333 111.672 97.1418C111.927 97.1588 117.411 97.5369 120.202 97.5369H120.198Z" fill="#004E89"/>
<path d="M155.996 120.086C155.996 120.086 151.791 130.379 139.369 136.386C131.519 140.18 118.596 141.577 107.614 139.967C106.633 139.823 106.174 138.893 106.76 138.238L118.286 120.086H155.996Z" fill="#EFF9F0"/>
<path d="M105.201 58.7682C105.524 57.4853 106.166 54.7495 107.423 54.074C107.185 54.2015 108.732 58.0333 109.36 58.1565C110.482 58.3774 110.121 48.6151 109.424 47.4894C110.533 47.7867 111.727 48.5727 112.572 49.3671C113.57 50.3059 113.94 51.3807 114.216 52.6636C115.699 52.0094 116.442 50.0935 115.66 48.6534C116.676 48.3985 117.483 49.6347 117.865 50.3866C118.337 51.3212 118.124 51.5421 119.059 51.6781C120.414 51.8735 122.321 51.2575 123.668 51.0621C126.829 50.6075 130.758 50.4503 133.66 48.9975C135.334 48.1606 137.819 49.8981 139.08 50.8242C141.791 52.8166 144.34 55.9262 142.126 59.3375C143.176 59.38 144.221 59.4777 145.257 59.6306C150.096 60.3443 148.584 68.8873 148.044 72.2731C147.696 74.4609 130.142 72.2731 126.374 70.5908C124.025 69.5415 122.406 67.8125 120.83 65.8541C120.576 67.7488 119.059 69.3164 117.279 70.0173C115.499 70.7183 113.498 70.663 111.625 70.285C110.851 70.1278 110.074 69.9154 109.407 69.4906C107.967 68.5772 107.117 66.1175 106.446 64.6052C105.694 62.8974 104.721 60.6756 105.197 58.7682H105.201Z" fill="#004E89"/>
<path d="M142.643 73.4935C144.433 70.3929 144.025 66.8057 141.731 65.4812C139.437 64.1568 136.126 65.5967 134.336 68.6973C132.546 71.798 132.954 75.3852 135.248 76.7096C137.542 78.034 140.853 76.5941 142.643 73.4935Z" fill="#EFF9F0"/>
<path d="M137.95 74.4991C138.031 74.3547 138.736 73.0463 138.388 72.1711C138.26 71.8568 138.01 71.6316 137.657 71.5254C136.808 71.2663 136.115 71.3088 135.682 71.3937C136.132 70.1533 137.105 67.991 138.086 67.8847C139.386 67.7488 140.011 69.5543 140.015 69.5755L140.495 69.4141C140.465 69.3249 139.739 67.2008 138.035 67.3835C136.395 67.5576 135.185 71.2705 135.049 71.6911L134.879 72.2306L135.393 71.997C135.393 71.997 136.26 71.6231 137.509 72.0097C137.717 72.0734 137.848 72.1839 137.921 72.3623C138.141 72.9146 137.7 73.9171 137.513 74.257L137.955 74.5034L137.95 74.4991Z" fill="black"/>
</g>
<defs>
<filter id="filter0_d_60_358" x="24.4382" y="30.9503" width="242.247" height="181.846" filterUnits="userSpaceOnUse" color-interpolation-filters="sRGB">
<feFlood flood-opacity="0" result="BackgroundImageFix"/>
<feColorMatrix in="SourceAlpha" type="matrix" values="0 0 0 0 0 0 0 0 0 0 0 0 0 0 0 0 0 0 127 0" result="hardAlpha"/>
<feOffset dx="5" dy="5"/>
<feGaussianBlur stdDeviation="2.5"/>
<feComposite in2="hardAlpha" operator="out"/>
<feColorMatrix type="matrix" values="0 0 0 0 0 0 0 0 0 0.305882 0 0 0 0 0.537255 0 0 0 0.33 0"/>
<feBlend mode="normal" in2="BackgroundImageFix" result="effect1_dropShadow_60_358"/>
<feBlend mode="normal" in="SourceGraphic" in2="effect1_dropShadow_60_358" result="shape"/>
</filter>
</defs>
</svg>
