<svg width="512" height="440" viewBox="0 0 512 440" fill="none" xmlns="http://www.w3.org/2000/svg">
<g filter="url(#filter0_d_60_515)">
<g filter="url(#filter1_d_60_515)">
<path d="M16.1541 295.573C27.4241 320.133 46.1341 340.673 70.4341 357.123C159.904 417.723 297.314 451.343 401.114 412.803C507.004 373.483 514.684 251.303 489.344 156.813C473.514 97.8033 437.974 59.4232 383.644 32.2832C266.714 -26.1168 114.034 -8.18676 42.0641 109.923C17.9141 149.573 2.38407 197.263 4.13407 244.003C4.83407 262.803 9.00407 279.993 16.1441 295.573H16.1541Z" fill="#F75C03"/>
</g>
<path d="M308.904 208.463C308.904 208.463 384.974 211.603 388.144 217.063C391.034 222.033 407.694 316.043 410.664 332.903C410.904 334.253 409.864 335.483 408.494 335.483H101.534C99.764 335.483 98.544 333.703 99.184 332.053C106.454 313.153 141.404 222.523 142.824 222.523C143.564 222.523 179.894 216.053 218.514 212.773C262.264 209.053 308.894 208.463 308.894 208.463H308.904Z" fill="#004E89"/>
<path d="M228.234 81.2532C227.044 82.0432 196.534 147.033 203.264 157.743C210.004 168.443 270.754 157.743 270.754 157.743L258.994 81.2532H228.224H228.234Z" fill="#E6E6E6"/>
<path d="M220.504 96.9032C220.504 96.9032 225.654 100.073 229.224 99.6732C232.794 99.2732 241.514 98.5632 242.694 88.1832C242.694 88.1832 246.264 95.7132 253.794 99.6732C261.324 103.633 296.394 108.793 297.084 103.633C297.774 98.4732 300.154 76.2832 293.424 74.3032C286.684 72.3232 246.664 73.1132 244.674 74.7032C244.674 74.7032 227.234 64.7932 214.954 65.9832C202.664 67.1732 220.504 96.8932 220.504 96.8932V96.9032Z" fill="#004E89"/>
<path d="M277.464 110.843L315.614 216.193H226.844L232.974 150.693L253.794 99.6833L274.404 111.923" fill="#E6E6E6"/>
<path d="M290.054 105.623C302.856 105.623 313.234 94.6228 313.234 81.0532C313.234 67.4835 302.856 56.4832 290.054 56.4832C277.252 56.4832 266.874 67.4835 266.874 81.0532C266.874 94.6228 277.252 105.623 290.054 105.623Z" fill="#004E89"/>
<path d="M284.187 106.511C288.4 99.2123 287.439 90.7681 282.039 87.6504C276.639 84.5328 268.846 87.9222 264.632 95.221C260.418 102.52 261.379 110.964 266.779 114.082C272.179 117.199 279.973 113.81 284.187 106.511Z" fill="#E6E6E6"/>
<path d="M271.224 115.443C272.764 115.443 274.374 115.093 276.004 114.383C279.334 112.933 282.294 110.173 284.354 106.613C288.614 99.2332 287.614 90.6533 282.124 87.4833C279.454 85.9433 276.144 85.8932 272.794 87.3532C269.464 88.8032 266.504 91.5633 264.444 95.1233C260.184 102.503 261.184 111.083 266.674 114.253C268.044 115.043 269.594 115.443 271.224 115.443ZM277.574 86.6832C279.134 86.6832 280.614 87.0632 281.934 87.8232C287.234 90.8832 288.164 99.2233 284.014 106.413C281.994 109.903 279.094 112.603 275.844 114.023C272.614 115.423 269.424 115.383 266.874 113.913C261.574 110.853 260.644 102.513 264.794 95.3232C266.814 91.8332 269.714 89.1332 272.964 87.7132C274.534 87.0332 276.094 86.6933 277.584 86.6933L277.574 86.6832Z" fill="#E6E6E6"/>
<path d="M249.234 111.563C250.659 111.563 251.814 109.79 251.814 107.603C251.814 105.416 250.659 103.643 249.234 103.643C247.809 103.643 246.654 105.416 246.654 107.603C246.654 109.79 247.809 111.563 249.234 111.563Z" fill="black"/>
<path d="M230.614 111.563C232.039 111.563 233.194 109.79 233.194 107.603C233.194 105.416 232.039 103.643 230.614 103.643C229.189 103.643 228.034 105.416 228.034 107.603C228.034 109.79 229.189 111.563 230.614 111.563Z" fill="black"/>
<path d="M232.524 128.783C234.104 128.783 235.254 128.413 235.354 128.383C235.664 128.283 235.834 127.943 235.734 127.633C235.634 127.323 235.294 127.153 234.984 127.253C234.804 127.313 230.514 128.673 227.264 125.533C226.234 124.533 225.744 123.653 225.884 123.043C226.044 122.363 227.004 122.053 227.014 122.043L230.784 120.883C234.734 119.663 239.554 104.363 240.094 102.623C240.194 102.313 240.014 101.973 239.704 101.883C239.394 101.783 239.054 101.963 238.964 102.273C237.004 108.613 232.964 118.973 230.444 119.743L226.684 120.903C226.624 120.923 225.074 121.393 224.744 122.753C224.484 123.823 225.054 125.043 226.454 126.383C228.454 128.313 230.774 128.773 232.544 128.773L232.524 128.783Z" fill="black"/>
<path d="M234.074 141.753C240.504 141.753 246.604 135.153 247.164 134.223L246.154 133.603C246.084 133.703 238.004 143.223 230.864 139.853L230.354 140.933C231.584 141.513 232.834 141.753 234.074 141.753Z" fill="black"/>
<path d="M273.134 108.893C273.324 108.553 274.984 105.473 274.164 103.413C273.864 102.673 273.274 102.143 272.444 101.893C270.444 101.283 268.814 101.383 267.794 101.583C268.854 98.6632 271.144 93.5732 273.454 93.3232C276.514 93.0032 277.984 97.2532 277.994 97.3032L279.124 96.9232C279.054 96.7132 277.344 91.7132 273.334 92.1432C269.474 92.5532 266.624 101.293 266.304 102.283L265.904 103.553L267.114 103.003C267.114 103.003 269.154 102.123 272.094 103.033C272.584 103.183 272.894 103.443 273.064 103.863C273.584 105.163 272.544 107.523 272.104 108.323L273.144 108.903L273.134 108.893Z" fill="black"/>
<path d="M231.344 163.113C231.954 163.113 232.504 163.113 232.994 163.093C238.724 162.893 251.764 161.093 251.894 161.073C252.224 161.033 252.444 160.723 252.404 160.403C252.354 160.073 252.054 159.853 251.734 159.893C251.604 159.913 238.624 161.703 232.954 161.903C227.284 162.093 211.504 161.013 211.354 161.003C211.024 160.973 210.744 161.223 210.724 161.553C210.704 161.883 210.944 162.163 211.274 162.183C211.874 162.223 224.784 163.113 231.354 163.113H231.344Z" fill="#004E89"/>
<path d="M315.614 216.193C315.614 216.193 305.714 240.423 276.474 254.563C257.994 263.493 227.574 266.783 201.724 262.993C199.414 262.653 198.334 260.463 199.714 258.923L226.844 216.193H315.614Z" fill="#E6E6E6"/>
</g>
<defs>
<filter id="filter0_d_60_515" x="4" y="0" width="507.476" height="439.232" filterUnits="userSpaceOnUse" color-interpolation-filters="sRGB">
<feFlood flood-opacity="0" result="BackgroundImageFix"/>
<feColorMatrix in="SourceAlpha" type="matrix" values="0 0 0 0 0 0 0 0 0 0 0 0 0 0 0 0 0 0 127 0" result="hardAlpha"/>
<feOffset dx="5" dy="5"/>
<feGaussianBlur stdDeviation="2.5"/>
<feComposite in2="hardAlpha" operator="out"/>
<feColorMatrix type="matrix" values="0 0 0 0 0 0 0 0 0 0 0 0 0 0 0 0 0 0 0.25 0"/>
<feBlend mode="normal" in2="BackgroundImageFix" result="effect1_dropShadow_60_515"/>
<feBlend mode="normal" in="SourceGraphic" in2="effect1_dropShadow_60_515" result="shape"/>
</filter>
<filter id="filter1_d_60_515" x="0" y="0" width="505.476" height="437.232" filterUnits="userSpaceOnUse" color-interpolation-filters="sRGB">
<feFlood flood-opacity="0" result="BackgroundImageFix"/>
<feColorMatrix in="SourceAlpha" type="matrix" values="0 0 0 0 0 0 0 0 0 0 0 0 0 0 0 0 0 0 127 0" result="hardAlpha"/>
<feOffset dy="4"/>
<feGaussianBlur stdDeviation="2"/>
<feComposite in2="hardAlpha" operator="out"/>
<feColorMatrix type="matrix" values="0 0 0 0 0 0 0 0 0 0 0 0 0 0 0 0 0 0 0.25 0"/>
<feBlend mode="normal" in2="BackgroundImageFix" result="effect1_dropShadow_60_515"/>
<feBlend mode="normal" in="SourceGraphic" in2="effect1_dropShadow_60_515" result="shape"/>
</filter>
</defs>
</svg>
