<svg width="33" height="33" viewBox="0 0 33 33" fill="none" xmlns="http://www.w3.org/2000/svg">
<g clip-path="url(#clip0_60_593)">
<path fill-rule="evenodd" clip-rule="evenodd" d="M33 16.5C33 25.6127 25.6127 33 16.5 33C7.3873 33 0 25.6127 0 16.5C0 7.3873 7.3873 0 16.5 0C25.6127 0 33 7.3873 33 16.5ZM17.7039 17.1457H20.6481L21.0378 13.3585H17.7042V11.1275C17.7042 10.2907 18.2571 10.0942 18.6504 10.0942H21.0478V6.4147L17.7436 6.40088C14.0764 6.40088 13.2431 9.14774 13.2431 10.9019V13.3549H11.1216V17.1457H13.2431V27.9319H17.7039V17.1457Z" fill="#F75C03"/>
</g>
<defs>
<clipPath id="clip0_60_593">
<rect width="33" height="33" fill="white"/>
</clipPath>
</defs>
</svg>
