<svg width="157" height="135" viewBox="0 0 157 135" fill="none" xmlns="http://www.w3.org/2000/svg">
<path d="M153.164 92.962C149.607 100.687 143.702 107.147 136.033 112.321C107.797 131.38 64.4303 141.954 31.6711 129.833C-1.74452 117.469 -4.16832 79.0384 3.82897 49.3228C8.8249 30.7631 20.0413 18.692 37.1878 10.156C74.0876 -8.21499 122.273 -2.5757 144.987 34.5719C152.612 47.0394 157.51 62.0387 156.958 76.7424C156.737 82.6553 155.421 88.0619 153.167 92.962H153.164Z" fill="#EBEBEB"/>
<path d="M56.6306 71.1V61.64C56.6306 60.7467 56.6906 59.76 56.8106 58.68L47.8306 71.1H56.6306ZM64.5706 71.1V73.96C64.5706 74.2267 64.484 74.46 64.3106 74.66C64.1373 74.8467 63.8906 74.94 63.5706 74.94H60.9306V82H56.6306V74.94H44.4306C44.0973 74.94 43.804 74.84 43.5506 74.64C43.2973 74.4267 43.1373 74.1667 43.0706 73.86L42.5506 71.36L56.2506 53.06H60.9306V71.1H64.5706ZM89.7938 67.54C89.7938 70.06 89.5204 72.2533 88.9738 74.12C88.4404 75.9733 87.6938 77.5067 86.7338 78.72C85.7871 79.9333 84.6604 80.84 83.3538 81.44C82.0604 82.0267 80.6604 82.32 79.1538 82.32C77.6471 82.32 76.2471 82.0267 74.9538 81.44C73.6738 80.84 72.5604 79.9333 71.6138 78.72C70.6671 77.5067 69.9271 75.9733 69.3938 74.12C68.8604 72.2533 68.5938 70.06 68.5938 67.54C68.5938 65.0067 68.8604 62.8133 69.3938 60.96C69.9271 59.1067 70.6671 57.5733 71.6138 56.36C72.5604 55.1467 73.6738 54.2467 74.9538 53.66C76.2471 53.06 77.6471 52.76 79.1538 52.76C80.6604 52.76 82.0604 53.06 83.3538 53.66C84.6604 54.2467 85.7871 55.1467 86.7338 56.36C87.6938 57.5733 88.4404 59.1067 88.9738 60.96C89.5204 62.8133 89.7938 65.0067 89.7938 67.54ZM84.6938 67.54C84.6938 65.4467 84.5404 63.7133 84.2338 62.34C83.9271 60.9667 83.5138 59.8733 82.9938 59.06C82.4871 58.2467 81.9004 57.68 81.2338 57.36C80.5671 57.0267 79.8738 56.86 79.1538 56.86C78.4471 56.86 77.7604 57.0267 77.0938 57.36C76.4404 57.68 75.8604 58.2467 75.3538 59.06C74.8471 59.8733 74.4404 60.9667 74.1338 62.34C73.8404 63.7133 73.6938 65.4467 73.6938 67.54C73.6938 69.6333 73.8404 71.3667 74.1338 72.74C74.4404 74.1133 74.8471 75.2067 75.3538 76.02C75.8604 76.8333 76.4404 77.4067 77.0938 77.74C77.7604 78.06 78.4471 78.22 79.1538 78.22C79.8738 78.22 80.5671 78.06 81.2338 77.74C81.9004 77.4067 82.4871 76.8333 82.9938 76.02C83.5138 75.2067 83.9271 74.1133 84.2338 72.74C84.5404 71.3667 84.6938 69.6333 84.6938 67.54ZM107.037 71.1V61.64C107.037 60.7467 107.097 59.76 107.217 58.68L98.2369 71.1H107.037ZM114.977 71.1V73.96C114.977 74.2267 114.89 74.46 114.717 74.66C114.544 74.8467 114.297 74.94 113.977 74.94H111.337V82H107.037V74.94H94.8369C94.5035 74.94 94.2102 74.84 93.9569 74.64C93.7035 74.4267 93.5435 74.1667 93.4769 73.86L92.9569 71.36L106.657 53.06H111.337V71.1H114.977Z" fill="#F75C03"/>
</svg>
