<svg width="508" height="452" viewBox="0 0 508 452" fill="none" xmlns="http://www.w3.org/2000/svg">
<g filter="url(#filter0_d_312_2)">
<path d="M485.312 307.571C474.042 332.131 455.332 352.671 431.032 369.121C341.562 429.721 204.152 463.341 100.352 424.801C-5.52763 385.491 -13.2076 263.301 12.1324 168.821C27.9624 109.811 63.5024 71.4306 117.832 44.2906C234.752 -14.1194 387.432 3.81065 459.402 121.921C483.562 161.561 499.082 209.251 497.332 256.001C496.632 274.801 492.462 291.991 485.322 307.571H485.312Z" fill="#F75C03"/>
<path d="M192.692 209.771C192.692 209.771 116.622 212.911 113.452 218.371C110.672 223.151 95.1522 310.321 91.3322 331.961C90.8822 334.481 92.8222 336.791 95.3822 336.791H398.602C401.072 336.791 402.772 334.321 401.882 332.011C393.612 310.521 360.152 223.831 358.762 223.831C358.022 223.831 321.692 217.361 283.072 214.081C239.322 210.361 192.692 209.771 192.692 209.771Z" fill="#004E89"/>
<path d="M273.353 82.5606C274.543 83.3506 305.053 148.341 298.323 159.051C291.583 169.751 230.833 159.051 230.833 159.051L242.593 82.5606H273.363H273.353Z" fill="#EBEBEB"/>
<path d="M281.082 98.2106C281.082 98.2106 275.932 101.381 272.362 100.981C268.792 100.581 260.072 99.8706 258.892 89.4906C258.892 89.4906 255.322 97.0206 247.792 100.981C240.262 104.941 205.192 110.101 204.502 104.941C203.812 99.7806 201.432 77.5906 208.162 75.6106C214.892 73.6306 254.922 74.4206 256.912 76.0106C256.912 76.0106 274.352 66.1006 286.632 67.2906C298.922 68.4806 281.082 98.2006 281.082 98.2006V98.2106Z" fill="#004E89"/>
<path d="M224.122 112.151L185.972 217.501H274.742L268.612 152.001L247.792 100.991L227.182 113.231" fill="#EBEBEB"/>
<path d="M252.352 112.871C253.777 112.871 254.932 111.098 254.932 108.911C254.932 106.724 253.777 104.951 252.352 104.951C250.928 104.951 249.772 106.724 249.772 108.911C249.772 111.098 250.928 112.871 252.352 112.871Z" fill="black"/>
<path d="M270.982 112.871C272.407 112.871 273.562 111.098 273.562 108.911C273.562 106.724 272.407 104.951 270.982 104.951C269.557 104.951 268.402 106.724 268.402 108.911C268.402 111.098 269.557 112.871 270.982 112.871Z" fill="black"/>
<path d="M269.063 130.091C267.483 130.091 266.333 129.721 266.233 129.691C265.923 129.591 265.753 129.251 265.853 128.941C265.953 128.631 266.293 128.461 266.603 128.561C266.783 128.621 271.073 129.981 274.323 126.841C275.353 125.841 275.843 124.961 275.703 124.351C275.543 123.671 274.583 123.361 274.573 123.351L270.803 122.191C266.853 120.971 262.033 105.671 261.493 103.931C261.393 103.621 261.573 103.281 261.883 103.191C262.193 103.091 262.533 103.271 262.623 103.581C264.583 109.921 268.623 120.281 271.143 121.051L274.903 122.211C274.963 122.231 276.513 122.701 276.843 124.061C277.103 125.131 276.533 126.351 275.133 127.691C273.133 129.621 270.813 130.081 269.043 130.081L269.063 130.091Z" fill="black"/>
<path d="M267.512 143.051C261.082 143.051 254.982 136.451 254.422 135.521L255.432 134.901C255.502 135.001 263.582 144.521 270.722 141.151L271.232 142.231C270.002 142.811 268.752 143.051 267.512 143.051Z" fill="black"/>
<path d="M270.242 164.421C269.632 164.421 269.082 164.421 268.592 164.401C262.862 164.201 249.822 162.401 249.692 162.381C249.362 162.341 249.142 162.031 249.182 161.711C249.232 161.381 249.532 161.161 249.852 161.201C249.982 161.221 262.962 163.011 268.632 163.211C274.302 163.401 290.082 162.321 290.232 162.311C290.562 162.281 290.842 162.531 290.862 162.861C290.882 163.191 290.642 163.471 290.312 163.491C289.712 163.531 276.802 164.421 270.232 164.421H270.242Z" fill="#004E89"/>
<path d="M185.972 217.501C185.972 217.501 195.872 241.731 225.112 255.871C243.592 264.801 274.012 268.091 299.862 264.301C302.172 263.961 303.252 261.771 301.872 260.231L274.742 217.501H185.972Z" fill="#EBEBEB"/>
<path d="M206.613 76.9406C205.203 78.5706 204.423 80.6206 203.383 82.5606C201.643 85.8106 199.993 89.1206 198.333 92.4106C195.073 98.8506 191.883 105.331 188.763 111.851C184.933 119.841 181.133 127.891 177.973 136.181C173.693 147.391 172.893 159.731 175.853 171.401C176.503 173.961 178.443 176.641 181.253 176.991C189.253 177.991 201.663 174.121 201.663 174.121L224.253 111.991C218.873 99.8506 213.573 87.6706 208.113 75.5706C207.533 75.9806 207.033 76.4406 206.603 76.9406H206.613Z" fill="#004E89"/>
<path d="M234.815 115.393C240.215 112.276 241.177 103.832 236.963 96.5329C232.749 89.2341 224.955 85.8447 219.555 88.9623C214.155 92.08 213.194 100.524 217.408 107.823C221.622 115.122 229.415 118.511 234.815 115.393Z" fill="#EBEBEB"/>
<path d="M230.362 116.751C228.822 116.751 227.212 116.401 225.582 115.691C222.252 114.241 219.292 111.481 217.232 107.921C212.972 100.541 213.972 91.9607 219.462 88.7907C222.132 87.2507 225.442 87.2007 228.792 88.6607C232.122 90.1107 235.082 92.8707 237.142 96.4307C241.402 103.811 240.402 112.391 234.912 115.561C233.542 116.351 231.992 116.751 230.362 116.751ZM224.012 87.9906C222.452 87.9906 220.972 88.3706 219.652 89.1306C214.352 92.1906 213.422 100.531 217.572 107.721C219.592 111.211 222.492 113.911 225.742 115.331C228.972 116.731 232.162 116.691 234.712 115.221C240.012 112.161 240.942 103.821 236.792 96.6306C234.772 93.1406 231.872 90.4406 228.622 89.0206C227.052 88.3406 225.492 88.0006 224.002 88.0006L224.012 87.9906Z" fill="#EBEBEB"/>
<path d="M228.452 110.191C228.262 109.851 226.602 106.771 227.422 104.711C227.722 103.971 228.312 103.441 229.142 103.191C231.142 102.581 232.772 102.681 233.792 102.881C232.732 99.9606 230.442 94.8706 228.132 94.6206C225.072 94.3006 223.602 98.5506 223.592 98.6006L222.462 98.2206C222.532 98.0106 224.242 93.0106 228.252 93.4406C232.112 93.8506 234.962 102.591 235.282 103.581L235.682 104.851L234.472 104.301C234.472 104.301 232.432 103.421 229.492 104.331C229.002 104.481 228.692 104.741 228.522 105.161C228.002 106.461 229.042 108.821 229.482 109.621L228.442 110.201L228.452 110.191Z" fill="black"/>
</g>
<path d="M495.164 92.962C491.607 100.687 485.702 107.147 478.033 112.321C449.797 131.38 406.43 141.954 373.671 129.833C340.255 117.469 337.832 79.0384 345.829 49.3228C350.825 30.7631 362.041 18.692 379.188 10.156C416.088 -8.21499 464.273 -2.5757 486.987 34.5719C494.612 47.0394 499.51 62.0387 498.958 76.7424C498.737 82.6553 497.421 88.0619 495.167 92.962H495.164Z" fill="#EBEBEB"/>
<path d="M398.631 71.1V61.64C398.631 60.7467 398.691 59.76 398.811 58.68L389.831 71.1H398.631ZM406.571 71.1V73.96C406.571 74.2267 406.484 74.46 406.311 74.66C406.137 74.8467 405.891 74.94 405.571 74.94H402.931V82H398.631V74.94H386.431C386.097 74.94 385.804 74.84 385.551 74.64C385.297 74.4267 385.137 74.1667 385.071 73.86L384.551 71.36L398.251 53.06H402.931V71.1H406.571ZM431.794 67.54C431.794 70.06 431.52 72.2533 430.974 74.12C430.44 75.9733 429.694 77.5067 428.734 78.72C427.787 79.9333 426.66 80.84 425.354 81.44C424.06 82.0267 422.66 82.32 421.154 82.32C419.647 82.32 418.247 82.0267 416.954 81.44C415.674 80.84 414.56 79.9333 413.614 78.72C412.667 77.5067 411.927 75.9733 411.394 74.12C410.86 72.2533 410.594 70.06 410.594 67.54C410.594 65.0067 410.86 62.8133 411.394 60.96C411.927 59.1067 412.667 57.5733 413.614 56.36C414.56 55.1467 415.674 54.2467 416.954 53.66C418.247 53.06 419.647 52.76 421.154 52.76C422.66 52.76 424.06 53.06 425.354 53.66C426.66 54.2467 427.787 55.1467 428.734 56.36C429.694 57.5733 430.44 59.1067 430.974 60.96C431.52 62.8133 431.794 65.0067 431.794 67.54ZM426.694 67.54C426.694 65.4467 426.54 63.7133 426.234 62.34C425.927 60.9667 425.514 59.8733 424.994 59.06C424.487 58.2467 423.9 57.68 423.234 57.36C422.567 57.0267 421.874 56.86 421.154 56.86C420.447 56.86 419.76 57.0267 419.094 57.36C418.44 57.68 417.86 58.2467 417.354 59.06C416.847 59.8733 416.44 60.9667 416.134 62.34C415.84 63.7133 415.694 65.4467 415.694 67.54C415.694 69.6333 415.84 71.3667 416.134 72.74C416.44 74.1133 416.847 75.2067 417.354 76.02C417.86 76.8333 418.44 77.4067 419.094 77.74C419.76 78.06 420.447 78.22 421.154 78.22C421.874 78.22 422.567 78.06 423.234 77.74C423.9 77.4067 424.487 76.8333 424.994 76.02C425.514 75.2067 425.927 74.1133 426.234 72.74C426.54 71.3667 426.694 69.6333 426.694 67.54ZM449.037 71.1V61.64C449.037 60.7467 449.097 59.76 449.217 58.68L440.237 71.1H449.037ZM456.977 71.1V73.96C456.977 74.2267 456.89 74.46 456.717 74.66C456.544 74.8467 456.297 74.94 455.977 74.94H453.337V82H449.037V74.94H436.837C436.504 74.94 436.21 74.84 435.957 74.64C435.704 74.4267 435.544 74.1667 435.477 73.86L434.957 71.36L448.657 53.06H453.337V71.1H456.977Z" fill="#F75C03"/>
<defs>
<filter id="filter0_d_312_2" x="0" y="12" width="507.466" height="439.229" filterUnits="userSpaceOnUse" color-interpolation-filters="sRGB">
<feFlood flood-opacity="0" result="BackgroundImageFix"/>
<feColorMatrix in="SourceAlpha" type="matrix" values="0 0 0 0 0 0 0 0 0 0 0 0 0 0 0 0 0 0 127 0" result="hardAlpha"/>
<feOffset dx="5" dy="5"/>
<feGaussianBlur stdDeviation="2.5"/>
<feComposite in2="hardAlpha" operator="out"/>
<feColorMatrix type="matrix" values="0 0 0 0 0 0 0 0 0 0 0 0 0 0 0 0 0 0 0.25 0"/>
<feBlend mode="normal" in2="BackgroundImageFix" result="effect1_dropShadow_312_2"/>
<feBlend mode="normal" in="SourceGraphic" in2="effect1_dropShadow_312_2" result="shape"/>
</filter>
</defs>
</svg>
