<svg width="33" height="33" viewBox="0 0 33 33" fill="none" xmlns="http://www.w3.org/2000/svg">
<g clip-path="url(#clip0_60_587)">
<path d="M23.1691 0H9.83088C4.41011 0 0 4.41011 0 9.83088V23.1691C0 28.5899 4.41011 33 9.83088 33H23.1691C28.5899 33 33 28.5899 33 23.1691V9.83088C32.9999 4.41011 28.5898 0 23.1691 0ZM29.6802 23.1691C29.6802 26.7651 26.7651 29.6802 23.1691 29.6802H9.83088C6.23494 29.6802 3.3198 26.7651 3.3198 23.1691V9.83088C3.3198 6.23488 6.23494 3.3198 9.83088 3.3198H23.1691C26.7651 3.3198 29.6802 6.23488 29.6802 9.83088V23.1691Z" fill="#F75C03"/>
<path d="M16.5001 7.96484C11.7939 7.96484 7.96509 11.7936 7.96509 16.4998C7.96509 21.2059 11.7939 25.0347 16.5001 25.0347C21.2063 25.0347 25.035 21.206 25.035 16.4998C25.035 11.7936 21.2063 7.96484 16.5001 7.96484ZM16.5001 21.715C13.6198 21.715 11.2849 19.3801 11.2849 16.4998C11.2849 13.6195 13.6198 11.2846 16.5001 11.2846C19.3803 11.2846 21.7152 13.6195 21.7152 16.4998C21.7152 19.38 19.3803 21.715 16.5001 21.715Z" fill="#F75C03"/>
<path d="M25.0515 10.0742C26.181 10.0742 27.0967 9.15855 27.0967 8.02904C27.0967 6.89953 26.181 5.98389 25.0515 5.98389C23.922 5.98389 23.0063 6.89953 23.0063 8.02904C23.0063 9.15855 23.922 10.0742 25.0515 10.0742Z" fill="#F75C03"/>
</g>
<defs>
<clipPath id="clip0_60_587">
<rect width="33" height="33" fill="white"/>
</clipPath>
</defs>
</svg>
