<svg width="508" height="440" viewBox="0 0 508 440" fill="none" xmlns="http://www.w3.org/2000/svg">
<g filter="url(#filter0_d_60_335)">
<path d="M485.312 295.571C474.042 320.131 455.332 340.671 431.032 357.121C341.562 417.721 204.152 451.341 100.352 412.801C-5.52763 373.491 -13.2076 251.301 12.1324 156.821C27.9624 97.8107 63.5024 59.4306 117.832 32.2906C234.752 -26.1194 387.432 -8.18935 459.402 109.921C483.562 149.561 499.082 197.251 497.332 244.001C496.632 262.801 492.462 279.991 485.322 295.571H485.312Z" fill="#F75C03"/>
<path d="M192.692 197.771C192.692 197.771 116.622 200.911 113.452 206.371C110.672 211.151 95.1524 298.321 91.3324 319.961C90.8824 322.481 92.8224 324.791 95.3824 324.791H398.602C401.072 324.791 402.772 322.321 401.882 320.011C393.612 298.521 360.152 211.831 358.762 211.831C358.022 211.831 321.692 205.361 283.072 202.081C239.322 198.361 192.692 197.771 192.692 197.771Z" fill="#004E89"/>
<path d="M273.352 70.5607C274.542 71.3507 305.052 136.341 298.322 147.051C291.582 157.751 230.832 147.051 230.832 147.051L242.592 70.5607H273.362H273.352Z" fill="#EBEBEB"/>
<path d="M281.082 86.2107C281.082 86.2107 275.932 89.3807 272.362 88.9807C268.792 88.5807 260.072 87.8707 258.892 77.4907C258.892 77.4907 255.322 85.0207 247.792 88.9807C240.262 92.9407 205.192 98.1007 204.502 92.9407C203.812 87.7807 201.432 65.5907 208.162 63.6107C214.892 61.6307 254.922 62.4207 256.912 64.0107C256.912 64.0107 274.352 54.1007 286.632 55.2907C298.922 56.4807 281.082 86.2007 281.082 86.2007V86.2107Z" fill="#004E89"/>
<path d="M224.122 100.151L185.972 205.501H274.742L268.612 140.001L247.792 88.9907L227.182 101.231" fill="#EBEBEB"/>
<path d="M252.352 100.871C253.777 100.871 254.932 99.0977 254.932 96.9106C254.932 94.7236 253.777 92.9506 252.352 92.9506C250.928 92.9506 249.772 94.7236 249.772 96.9106C249.772 99.0977 250.928 100.871 252.352 100.871Z" fill="black"/>
<path d="M270.982 100.871C272.407 100.871 273.562 99.0977 273.562 96.9106C273.562 94.7236 272.407 92.9506 270.982 92.9506C269.557 92.9506 268.402 94.7236 268.402 96.9106C268.402 99.0977 269.557 100.871 270.982 100.871Z" fill="black"/>
<path d="M269.062 118.091C267.482 118.091 266.332 117.721 266.232 117.691C265.922 117.591 265.752 117.251 265.852 116.941C265.952 116.631 266.292 116.461 266.602 116.561C266.782 116.621 271.072 117.981 274.322 114.841C275.352 113.841 275.842 112.961 275.702 112.351C275.542 111.671 274.582 111.361 274.572 111.351L270.802 110.191C266.852 108.971 262.032 93.6707 261.492 91.9307C261.392 91.6207 261.572 91.2807 261.882 91.1907C262.192 91.0907 262.532 91.2707 262.622 91.5807C264.582 97.9207 268.622 108.281 271.142 109.051L274.902 110.211C274.962 110.231 276.512 110.701 276.842 112.061C277.102 113.131 276.532 114.351 275.132 115.691C273.132 117.621 270.812 118.081 269.042 118.081L269.062 118.091Z" fill="black"/>
<path d="M267.512 131.051C261.082 131.051 254.982 124.451 254.422 123.521L255.432 122.901C255.502 123.001 263.582 132.521 270.722 129.151L271.232 130.231C270.002 130.811 268.752 131.051 267.512 131.051Z" fill="black"/>
<path d="M270.242 152.421C269.632 152.421 269.082 152.421 268.592 152.401C262.862 152.201 249.822 150.401 249.692 150.381C249.362 150.341 249.142 150.031 249.182 149.711C249.232 149.381 249.532 149.161 249.852 149.201C249.982 149.221 262.962 151.011 268.632 151.211C274.302 151.401 290.082 150.321 290.232 150.311C290.562 150.281 290.842 150.531 290.862 150.861C290.882 151.191 290.642 151.471 290.312 151.491C289.712 151.531 276.802 152.421 270.232 152.421H270.242Z" fill="#004E89"/>
<path d="M185.972 205.501C185.972 205.501 195.872 229.731 225.112 243.871C243.592 252.801 274.012 256.091 299.862 252.301C302.172 251.961 303.252 249.771 301.872 248.231L274.742 205.501H185.972Z" fill="#EBEBEB"/>
<path d="M206.612 64.9406C205.202 66.5706 204.422 68.6206 203.382 70.5606C201.642 73.8106 199.992 77.1206 198.332 80.4106C195.072 86.8506 191.882 93.3306 188.762 99.8506C184.932 107.841 181.132 115.891 177.972 124.181C173.692 135.391 172.892 147.731 175.852 159.401C176.502 161.961 178.442 164.641 181.252 164.991C189.252 165.991 201.662 162.121 201.662 162.121L224.252 99.9906C218.872 87.8506 213.572 75.6706 208.112 63.5706C207.532 63.9806 207.032 64.4406 206.602 64.9406H206.612Z" fill="#004E89"/>
<path d="M234.815 103.393C240.215 100.276 241.176 91.8316 236.962 84.5328C232.749 77.2341 224.955 73.8447 219.555 76.9623C214.155 80.08 213.194 88.5241 217.408 95.8228C221.622 103.122 229.415 106.511 234.815 103.393Z" fill="#EBEBEB"/>
<path d="M230.362 104.751C228.822 104.751 227.212 104.401 225.582 103.691C222.252 102.241 219.292 99.4807 217.232 95.9207C212.972 88.5407 213.972 79.9607 219.462 76.7907C222.132 75.2507 225.442 75.2007 228.792 76.6607C232.122 78.1107 235.082 80.8707 237.142 84.4307C241.402 91.8107 240.402 100.391 234.912 103.561C233.542 104.351 231.992 104.751 230.362 104.751ZM224.012 75.9907C222.452 75.9907 220.972 76.3707 219.652 77.1307C214.352 80.1907 213.422 88.5307 217.572 95.7207C219.592 99.2107 222.492 101.911 225.742 103.331C228.972 104.731 232.162 104.691 234.712 103.221C240.012 100.161 240.942 91.8207 236.792 84.6307C234.772 81.1407 231.872 78.4407 228.622 77.0207C227.052 76.3407 225.492 76.0007 224.002 76.0007L224.012 75.9907Z" fill="#EBEBEB"/>
<path d="M228.452 98.1906C228.262 97.8506 226.602 94.7706 227.422 92.7106C227.722 91.9706 228.312 91.4406 229.142 91.1906C231.142 90.5806 232.772 90.6806 233.792 90.8806C232.732 87.9606 230.442 82.8706 228.132 82.6206C225.072 82.3006 223.602 86.5506 223.592 86.6006L222.462 86.2206C222.532 86.0106 224.242 81.0106 228.252 81.4406C232.112 81.8506 234.962 90.5906 235.282 91.5806L235.682 92.8506L234.472 92.3006C234.472 92.3006 232.432 91.4206 229.492 92.3306C229.002 92.4806 228.692 92.7406 228.522 93.1606C228.002 94.4606 229.042 96.8206 229.482 97.6206L228.442 98.2006L228.452 98.1906Z" fill="black"/>
</g>
<defs>
<filter id="filter0_d_60_335" x="0" y="0" width="507.467" height="439.229" filterUnits="userSpaceOnUse" color-interpolation-filters="sRGB">
<feFlood flood-opacity="0" result="BackgroundImageFix"/>
<feColorMatrix in="SourceAlpha" type="matrix" values="0 0 0 0 0 0 0 0 0 0 0 0 0 0 0 0 0 0 127 0" result="hardAlpha"/>
<feOffset dx="5" dy="5"/>
<feGaussianBlur stdDeviation="2.5"/>
<feComposite in2="hardAlpha" operator="out"/>
<feColorMatrix type="matrix" values="0 0 0 0 0 0 0 0 0 0 0 0 0 0 0 0 0 0 0.25 0"/>
<feBlend mode="normal" in2="BackgroundImageFix" result="effect1_dropShadow_60_335"/>
<feBlend mode="normal" in="SourceGraphic" in2="effect1_dropShadow_60_335" result="shape"/>
</filter>
</defs>
</svg>
