<svg width="370" height="308" viewBox="0 0 370 308" fill="none" xmlns="http://www.w3.org/2000/svg">
<g filter="url(#filter0_d_57_1420)">
<path d="M36.6237 208.705C16.3973 154.231 66.3632 85.4312 148.226 55.0358C230.088 24.6404 312.848 44.1599 333.074 98.634C353.301 153.108 303.335 221.908 221.472 252.304C139.609 282.699 56.8501 263.179 36.6237 208.705Z" fill="#F75C03"/>
<path d="M213.548 148.747C213.548 148.747 256.051 150.5 257.822 153.55C259.325 156.135 267.505 201.878 269.963 215.733C270.326 217.794 268.74 219.682 266.65 219.682H100.174C97.9896 219.682 96.481 217.493 97.2689 215.454C102.717 201.32 120.015 156.604 120.764 156.604C121.177 156.604 141.476 152.991 163.055 151.159C187.499 149.082 213.553 148.752 213.553 148.752L213.548 148.747Z" fill="#004E89"/>
<path d="M158.316 78.7277C157.652 79.1689 150.762 114.569 154.528 120.55C158.294 126.531 192.237 120.55 192.237 120.55L185.667 77.8342L158.316 78.7277Z" fill="#EBEBEB"/>
<path d="M195.986 94.3589L217.302 153.198H167.703L171.128 116.619L182.761 88.1265L194.277 94.9676" fill="#EBEBEB"/>
<path d="M180.213 94.7665C179.417 94.7665 178.772 93.7764 178.772 92.555C178.772 91.3337 179.417 90.3436 180.213 90.3436C181.009 90.3436 181.655 91.3337 181.655 92.555C181.655 93.7764 181.009 94.7665 180.213 94.7665Z" fill="black"/>
<path d="M169.804 94.7665C169.008 94.7665 168.362 93.7764 168.362 92.555C168.362 91.3337 169.008 90.3436 169.804 90.3436C170.6 90.3436 171.245 91.3337 171.245 92.555C171.245 93.7764 170.6 94.7665 169.804 94.7665Z" fill="black"/>
<path d="M170.877 104.383C171.76 104.383 172.402 104.176 172.458 104.16C172.631 104.104 172.726 103.914 172.671 103.741C172.615 103.568 172.425 103.473 172.252 103.529C172.151 103.562 169.754 104.322 167.938 102.568C167.363 102.01 167.089 101.518 167.167 101.178C167.257 100.798 167.793 100.625 167.799 100.619L169.905 99.9713C172.112 99.29 174.805 90.7457 175.107 89.7739C175.162 89.6008 175.062 89.4109 174.889 89.3607C174.715 89.3048 174.526 89.4054 174.475 89.5785C173.38 93.1191 171.123 98.9047 169.715 99.3347L167.614 99.9825C167.581 99.9937 166.715 100.256 166.53 101.016C166.385 101.613 166.703 102.294 167.486 103.043C168.603 104.121 169.899 104.378 170.888 104.378L170.877 104.383Z" fill="black"/>
<path d="M171.743 111.621C175.336 111.621 178.744 107.935 179.057 107.416L178.492 107.069C178.453 107.125 173.939 112.442 169.949 110.56L169.665 111.163C170.352 111.487 171.05 111.621 171.743 111.621Z" fill="black"/>
<path d="M170.217 123.555C170.558 123.555 170.865 123.555 171.139 123.544C174.341 123.432 181.627 122.427 181.699 122.416C181.884 122.393 182.007 122.22 181.984 122.041C181.956 121.857 181.789 121.734 181.61 121.757C181.537 121.768 174.285 122.767 171.117 122.879C167.949 122.985 159.132 122.382 159.048 122.377C158.864 122.36 158.707 122.499 158.696 122.684C158.685 122.868 158.819 123.024 159.003 123.036C159.339 123.058 166.552 123.555 170.223 123.555H170.217Z" fill="#004E89"/>
<path d="M217.302 153.198C217.302 153.198 211.771 166.729 195.433 174.626C185.108 179.613 168.111 181.45 153.668 179.333C152.377 179.143 151.774 177.92 152.545 177.06L167.703 153.198H217.302Z" fill="#EBEBEB"/>
<path d="M156.462 84.8036C156.462 84.8036 159.339 86.5739 161.334 86.3506C163.328 86.1272 168.201 85.7307 168.86 79.9339C168.86 79.9339 170.855 84.1391 175.062 86.3506C179.269 88.562 198.864 91.4437 199.25 88.562C199.635 85.6804 200.965 73.2883 197.205 72.1826C193.444 71.0768 171.078 71.518 169.966 72.406C169.966 72.406 160.222 66.8717 153.361 67.5362C146.494 68.2008 156.462 84.7981 156.462 84.7981V84.8036Z" fill="#004E89"/>
<path d="M190.016 96.1725C186.999 94.4309 186.462 89.7143 188.815 85.6378C191.169 81.5613 195.523 79.6686 198.539 81.4103C201.556 83.1519 202.094 87.8685 199.74 91.945C197.386 96.0215 193.033 97.9142 190.016 96.1725Z" fill="#EBEBEB"/>
<path d="M192.5 96.9334C193.36 96.9334 194.26 96.738 195.171 96.3415C197.031 95.5317 198.685 93.9904 199.836 92.0023C202.216 87.8809 201.657 83.0894 198.59 81.3191C197.098 80.459 195.249 80.4311 193.377 81.2465C191.517 82.0562 189.863 83.5975 188.712 85.5856C186.332 89.707 186.89 94.4986 189.958 96.2689C190.723 96.7101 191.589 96.9334 192.5 96.9334ZM196.048 80.8723C196.919 80.8723 197.746 81.0845 198.484 81.5089C201.445 83.2178 201.965 87.8753 199.646 91.8906C198.517 93.8396 196.897 95.3474 195.081 96.1404C193.276 96.9223 191.494 96.8999 190.069 96.079C187.108 94.3701 186.589 89.7126 188.907 85.6973C190.036 83.7483 191.656 82.2405 193.472 81.4475C194.349 81.0678 195.221 80.8779 196.053 80.8779L196.048 80.8723Z" fill="#EBEBEB"/>
<path d="M193.567 93.2699C193.673 93.0801 194.6 91.36 194.142 90.2096C193.975 89.7963 193.645 89.5004 193.181 89.3608C192.064 89.0201 191.153 89.0759 190.583 89.1876C191.176 87.5569 192.455 84.7144 193.746 84.5748C195.455 84.3961 196.277 86.7695 196.282 86.7974L196.914 86.5852C196.874 86.468 195.919 83.6757 193.679 83.9158C191.522 84.1448 189.93 89.0257 189.751 89.5785L189.527 90.2878L190.203 89.9806C190.203 89.9806 191.343 89.4892 192.986 89.9974C193.26 90.0812 193.433 90.2264 193.528 90.4609C193.818 91.1869 193.237 92.5048 192.991 92.9516L193.572 93.2755L193.567 93.2699Z" fill="black"/>
</g>
<defs>
<filter id="filter0_d_57_1420" x="32.1304" y="40.6998" width="315.437" height="235.94" filterUnits="userSpaceOnUse" color-interpolation-filters="sRGB">
<feFlood flood-opacity="0" result="BackgroundImageFix"/>
<feColorMatrix in="SourceAlpha" type="matrix" values="0 0 0 0 0 0 0 0 0 0 0 0 0 0 0 0 0 0 127 0" result="hardAlpha"/>
<feOffset dx="5" dy="5"/>
<feGaussianBlur stdDeviation="2.5"/>
<feComposite in2="hardAlpha" operator="out"/>
<feColorMatrix type="matrix" values="0 0 0 0 0 0 0 0 0 0.305882 0 0 0 0 0.537255 0 0 0 0.43 0"/>
<feBlend mode="normal" in2="BackgroundImageFix" result="effect1_dropShadow_57_1420"/>
<feBlend mode="normal" in="SourceGraphic" in2="effect1_dropShadow_57_1420" result="shape"/>
</filter>
</defs>
</svg>
